<?xml version="1.0" encoding="utf-8"?>
<!-- Generator: Adobe Illustrator 19.2.1, SVG Export Plug-In . SVG Version: 6.00 Build 0)  -->
<svg version="1.1" id="layer" xmlns="http://www.w3.org/2000/svg" xmlns:xlink="http://www.w3.org/1999/xlink" x="0px" y="0px"
	 viewBox="0 0 652 652" style="enable-background:new 0 0 652 652;" xml:space="preserve">
<style type="text/css">
	.st0{fill:#0065A3;}
	.st1{fill:#C6C7C8;}
	.st2{fill:#1A171B;}
</style>
<g>
	<rect x="20.9" y="226.1" class="st0" width="47.1" height="47.1"/>
	<rect x="20.9" y="311.3" class="st0" width="47.1" height="47.1"/>
	<rect x="102.2" y="311.3" class="st0" width="47.1" height="47.1"/>
	
		<rect x="101.7" y="225.6" transform="matrix(0.9812 -0.1932 0.1932 0.9812 -45.7731 28.9045)" class="st1" width="47.1" height="47.1"/>
	<polygon class="st2" points="196.5,403.1 206.3,403.1 206.3,405.5 199.1,405.5 199.1,410.9 206,410.9 206,413.2 199.1,413.2 
		199.1,421.6 196.5,421.6 	"/>
	<polygon class="st2" points="211,403.1 213.7,403.1 213.7,410.9 222.5,410.9 222.5,403.1 225.2,403.1 225.2,421.6 222.5,421.6 
		222.5,413.2 213.7,413.2 213.7,421.6 211,421.6 	"/>
	<path class="st2" d="M239,419.6c4.3,0,6.1-3.5,6.1-7.2c0-3.8-2-7.2-6.1-7.2c-4.1,0-6.1,3.5-6.1,7.2
		C232.9,416.1,234.8,419.6,239,419.6 M239,402.8c5.6,0,8.9,4.1,8.9,9.5c0,5.6-3.3,9.6-8.9,9.6c-5.6,0-8.9-3.9-8.9-9.6
		C230.1,406.9,233.4,402.8,239,402.8"/>
	<polygon class="st2" points="261,403.1 270.8,403.1 270.8,405.5 263.6,405.5 263.6,410.9 270.5,410.9 270.5,413.2 263.6,413.2 
		263.6,421.6 261,421.6 	"/>
	<path class="st2" d="M283.2,415.2c-0.5,0-1.1-0.1-1.6-0.1c-1.4,0-4.7,0.2-4.7,2.6c0,1.4,1.4,2.2,2.5,2.2c2.5,0,3.8-1.5,3.8-3.5
		C283.2,416.4,283.2,415.2,283.2,415.2z M275.8,409.1c1.2-0.7,2.7-1.3,4.4-1.3c3.9,0,5.4,1.9,5.4,5.6v5.6c0,1.5,0.1,2.2,0.1,2.6
		h-2.3v-1.7h-0.1c-0.6,0.8-1.9,2.1-4.2,2.1c-2.9,0-4.9-1.3-4.9-4.2c0-3.4,3.7-4.4,6.3-4.4c1,0,1.7,0,2.6,0.1c0-2.3-0.8-3.5-3.3-3.5
		c-1.4,0-2.9,0.5-3.9,1.4L275.8,409.1z"/>
	<path class="st2" d="M299.5,410.4c-0.9-0.4-1.9-0.6-2.7-0.6c-2.8,0-4.3,2.5-4.3,5c0,2.4,1.3,5.1,4.5,5.1c0.8,0,1.9-0.3,2.7-0.8
		l0.2,2.2c-1,0.5-2.2,0.6-3.1,0.6c-4.1,0-6.9-3.2-6.9-7.1c0-4.1,2.7-7.1,6.9-7.1c1,0,2.3,0.2,3,0.5L299.5,410.4z"/>
	<path class="st2" d="M303.8,401.8h2.5v8.3h0.1c0.9-1.4,2.5-2.2,4.3-2.2c3.5,0,5.1,2.2,5.1,5.8v8h-2.5v-7c0-3.2-0.7-4.7-2.9-4.8
		c-2.8,0-4.1,2.3-4.1,5.6v6.2h-2.5V401.8z"/>
	<path class="st2" d="M321,401.8h2.5v8.3h0c0.9-1.4,2.5-2.2,4.3-2.2c3.5,0,5.1,2.2,5.1,5.8v8h-2.5v-7c0-3.2-0.7-4.7-2.9-4.8
		c-2.8,0-4.1,2.3-4.1,5.6v6.2H321V401.8z"/>
	<path class="st2" d="M344.2,419.9c2.9,0,4.2-2.6,4.2-5.1c0-2.6-1.6-5-4.2-5c-2.7,0-4.2,2.5-4.2,5
		C339.9,417.3,341.3,419.9,344.2,419.9 M344.2,407.8c4.1,0,6.9,3,6.9,7.1c0,3.9-2.8,7.1-6.9,7.1c-4.1,0-6.9-3.2-6.9-7.1
		C337.3,410.8,340.1,407.8,344.2,407.8"/>
	<path class="st2" d="M364,410.4c-1-0.4-1.9-0.6-2.7-0.6c-2.8,0-4.3,2.5-4.3,5c0,2.4,1.3,5.1,4.5,5.1c0.9,0,1.9-0.3,2.7-0.8l0.2,2.2
		c-1,0.5-2.2,0.6-3.1,0.6c-4.1,0-6.9-3.2-6.9-7.1c0-4.1,2.7-7.1,6.9-7.1c1,0,2.3,0.2,3,0.5L364,410.4z"/>
	<path class="st2" d="M368.2,401.8h2.5v8.3h0.1c0.9-1.4,2.5-2.2,4.3-2.2c3.5,0,5.1,2.2,5.1,5.8v8h-2.5v-7c0-3.2-0.7-4.7-2.8-4.8
		c-2.8,0-4.1,2.3-4.1,5.6v6.2h-2.5V401.8z"/>
	<path class="st2" d="M384.5,419c1,0.6,2.4,1,3.1,1c1.1,0,2.5-0.5,2.5-1.9c0-2.5-5.8-2.2-5.8-6c0-2.8,2.1-4.2,4.8-4.2
		c1.2,0,2.1,0.2,3.1,0.5l-0.2,2.2c-0.6-0.3-2-0.7-2.6-0.7c-1.3,0-2.4,0.5-2.4,1.6c0,2.8,5.8,2,5.8,6.3c0,2.9-2.3,4.2-4.7,4.2
		c-1.3,0-2.6-0.1-3.7-0.7L384.5,419z"/>
	<path class="st2" d="M405.4,410.4c-1-0.4-1.9-0.6-2.7-0.6c-2.8,0-4.3,2.5-4.3,5c0,2.4,1.3,5.1,4.5,5.1c0.8,0,1.9-0.3,2.7-0.8
		l0.2,2.2c-1,0.5-2.2,0.6-3.1,0.6c-4.1,0-6.9-3.2-6.9-7.1c0-4.1,2.8-7.1,6.9-7.1c1,0,2.3,0.2,3,0.5L405.4,410.4z"/>
	<path class="st2" d="M409.6,401.8h2.5v8.3h0.1c0.9-1.4,2.5-2.2,4.3-2.2c3.5,0,5.1,2.2,5.1,5.8v8h-2.5v-7c0-3.2-0.7-4.7-2.9-4.8
		c-2.8,0-4.1,2.3-4.1,5.6v6.2h-2.5V401.8z"/>
	<path class="st2" d="M438.8,421.6h-2.4v-2.1h0c-0.8,1.5-2.6,2.5-4.4,2.5c-3.5,0-5-2.2-5-5.8v-8h2.5v7c0,3.1,0.7,4.7,2.9,4.8
		c2.8,0,4.1-2.3,4.1-5.6v-6.2h2.5L438.8,421.6L438.8,421.6z"/>
	<rect x="444.4" y="401.8" class="st2" width="2.5" height="19.8"/>
	<path class="st2" d="M461.2,413.6c0-2.1-1.2-3.8-3.4-3.8c-2.4,0-3.4,2-3.6,3.8H461.2z M462.8,421.1c-1,0.3-2,0.9-4.3,0.9
		c-4.8,0-7-2.9-7-7.3c0-4,2.5-6.8,6.3-6.8c4.5,0,5.9,3.3,5.9,7.6h-9.6c0,2.7,2.1,4.5,4.4,4.5c1.6,0,3.5-0.8,4.1-1.4L462.8,421.1
		L462.8,421.1z"/>
	<path class="st2" d="M484.8,419.6c4.3,0,6.1-3.5,6.1-7.2c0-3.8-2-7.2-6.1-7.2c-4.1,0-6.1,3.5-6.1,7.2
		C478.8,416.1,480.6,419.6,484.8,419.6 M484.8,402.8c5.6,0,8.9,4.1,8.9,9.5c0,5.6-3.3,9.6-8.9,9.6s-8.9-3.9-8.9-9.6
		C476,406.9,479.2,402.8,484.8,402.8"/>
	<path class="st2" d="M497.3,419c1,0.6,2.4,1,3.1,1c1.1,0,2.5-0.5,2.5-1.9c0-2.5-5.9-2.2-5.9-6c0-2.8,2.1-4.2,4.8-4.2
		c1.2,0,2.1,0.2,3.1,0.5l-0.2,2.2c-0.6-0.3-2-0.7-2.6-0.7c-1.3,0-2.4,0.5-2.4,1.6c0,2.8,5.8,2,5.8,6.3c0,2.9-2.3,4.2-4.7,4.2
		c-1.3,0-2.6-0.1-3.7-0.7L497.3,419z"/>
	<path class="st2" d="M516.8,410.1h-3.6v7.4c0,1.6,1,2.4,2.1,2.4c0.8,0,1.3-0.2,1.7-0.5v2.1c-0.6,0.2-1.3,0.4-2.1,0.4
		c-2.6,0-4.2-1.2-4.2-3.9v-7.9h-3v-2h3V405l2.5-0.8v3.9h3.6L516.8,410.1L516.8,410.1z"/>
	<path class="st2" d="M520,419c1,0.6,2.4,1,3.1,1c1.1,0,2.5-0.5,2.5-1.9c0-2.5-5.8-2.2-5.8-6c0-2.8,2.1-4.2,4.8-4.2
		c1.2,0,2.1,0.2,3.1,0.5l-0.2,2.2c-0.6-0.3-2-0.7-2.6-0.7c-1.3,0-2.4,0.5-2.4,1.6c0,2.8,5.8,2,5.8,6.3c0,2.9-2.3,4.2-4.7,4.2
		c-1.3,0-2.6-0.1-3.7-0.7L520,419z"/>
	<path class="st2" d="M540.9,410.4c-1-0.4-1.9-0.6-2.7-0.6c-2.8,0-4.3,2.5-4.3,5c0,2.4,1.3,5.1,4.5,5.1c0.8,0,1.9-0.3,2.7-0.8
		l0.2,2.2c-1,0.5-2.2,0.6-3.1,0.6c-4.1,0-6.9-3.2-6.9-7.1c0-4.1,2.8-7.1,6.9-7.1c1,0,2.3,0.2,3,0.5L540.9,410.4z"/>
	<path class="st2" d="M545.2,401.8h2.5v8.3h0.1c0.9-1.4,2.5-2.2,4.3-2.2c3.5,0,5.1,2.2,5.1,5.8v8h-2.5v-7c0-3.2-0.7-4.7-2.9-4.8
		c-2.8,0-4.1,2.3-4.1,5.6v6.2h-2.5V401.8z"/>
	<polygon class="st2" points="577.7,421.6 574.8,421.6 571.3,410.3 571.2,410.3 567.8,421.6 564.9,421.6 560.6,408.1 563.3,408.1 
		566.4,419.3 566.5,419.3 569.9,408.1 572.8,408.1 576.2,419.3 576.3,419.3 579.6,408.1 582,408.1 	"/>
	<path class="st2" d="M594.2,413.6c0-2.1-1.2-3.8-3.4-3.8c-2.4,0-3.4,2-3.6,3.8H594.2z M595.8,421.1c-1,0.3-2,0.9-4.3,0.9
		c-4.8,0-7-2.9-7-7.3c0-4,2.5-6.8,6.3-6.8c4.5,0,5.9,3.3,5.9,7.6h-9.6c0,2.7,2.1,4.5,4.4,4.5c1.6,0,3.5-0.8,4.2-1.4V421.1z"/>
	<path class="st2" d="M601.6,421.6h2.5v-13.5h-2.5V421.6z M601.4,405.1h2.8v-2.8h-2.8V405.1z"/>
	<polygon class="st2" points="608.7,419.4 616.5,410.1 609.1,410.1 609.1,408.1 619.4,408.1 619.4,410.3 611.6,419.6 619.6,419.6 
		619.6,421.6 608.7,421.6 	"/>
	<polygon class="st2" points="196.7,226.1 206.1,226.1 206.1,245.2 225.1,245.2 225.1,226.1 234.6,226.1 234.6,273.3 225.1,273.3 
		225.1,252.6 206.1,252.6 206.1,273.3 196.7,273.3 	"/>
	<path class="st2" d="M279,234.7c-3-1.3-6.3-2-9.6-2c-3.2,0-7.4,1.4-7.4,6.5c0,8.2,20.7,4.7,20.7,20.6c0,10.4-8.2,14.3-17.7,14.3
		c-5.1,0-7.4-0.7-12.1-1.8l0.9-8.5c3.2,1.8,7,2.9,10.7,2.9c3.6,0,8.4-1.8,8.4-6.1c0-9-20.7-5.3-20.7-20.9c0-10.6,8.2-14.4,16.5-14.4
		c4.1,0,7.8,0.6,11.3,1.7L279,234.7z"/>
	<path class="st2" d="M298.5,226.1h10.2c10.2,0,22.3-0.3,22.3,12.8c0,5.6-3.7,10.2-9.7,11v0.1c2.6,0.2,4.1,2.8,5,4.9l7.6,18.5h-10.6
		l-5.7-14.8c-1.4-3.5-2.6-4.9-6.6-4.9H308v19.6h-9.5V226.1z M308,246.2h3.1c4.7,0,10-0.7,10-6.6c0-5.7-5.3-6.2-10-6.2H308V246.2z"/>
	<polygon class="st2" points="196.6,296 199.4,296 199.4,304.4 208.9,304.4 208.9,296 211.7,296 211.7,315.9 208.9,315.9 
		208.9,306.8 199.4,306.8 199.4,315.9 196.6,315.9 	"/>
	<path class="st2" d="M228.3,295.7c6,0,9.6,4.4,9.6,10.3c0,6-3.5,10.3-9.6,10.3c-6.1,0-9.6-4.2-9.6-10.3
		C218.7,300.1,222.3,295.7,228.3,295.7 M228.3,313.7c4.6,0,6.5-3.8,6.5-7.8c0-4-2.2-7.8-6.5-7.8c-4.4,0-6.5,3.7-6.5,7.8
		C221.8,309.9,223.7,313.7,228.3,313.7"/>
	<path class="st2" d="M258.4,299.3c-1.3-0.7-2.6-1.1-4.1-1.1c-4.6,0-7.6,3.3-7.6,7.8c0,4.7,3.3,7.8,7.5,7.8c1.4,0,3.3-0.4,4.3-1
		l0.2,2.7c-1.5,0.6-3.3,0.7-4.5,0.7c-6.3,0-10.5-4-10.5-10.4c0-6.1,4.4-10.2,10.5-10.2c1.5,0,3,0.2,4.5,0.9L258.4,299.3z"/>
	<polygon class="st2" points="265,296 267.9,296 267.9,304.4 277.4,304.4 277.4,296 280.2,296 280.2,315.9 277.4,315.9 277.4,306.8 
		267.9,306.8 267.9,315.9 265,315.9 	"/>
	<path class="st2" d="M297.3,299c-1.4-0.6-2.2-0.8-3.7-0.8c-1.6,0-3.5,0.6-3.5,2.6c0,3.8,8.5,2.9,8.5,9.5c0,4.2-3.3,5.9-7.2,5.9
		c-1.4,0-2.8-0.4-4.1-0.8l0.3-2.6c1,0.4,2.7,1,4.1,1c1.6,0,3.9-0.9,3.9-3.2c0-4.5-8.5-3.2-8.5-9.4c0-3.5,2.8-5.4,6.4-5.4
		c1.3,0,2.9,0.2,4.2,0.7L297.3,299z"/>
	<path class="st2" d="M319,299.3c-1.3-0.7-2.6-1.1-4.1-1.1c-4.6,0-7.6,3.3-7.6,7.8c0,4.7,3.4,7.8,7.5,7.8c1.4,0,3.3-0.4,4.3-1
		l0.2,2.7c-1.5,0.6-3.4,0.7-4.5,0.7c-6.3,0-10.5-4-10.5-10.4c0-6.1,4.4-10.2,10.5-10.2c1.5,0,3,0.2,4.5,0.9L319,299.3z"/>
	<polygon class="st2" points="325.6,296 328.5,296 328.5,304.4 338,304.4 338,296 340.8,296 340.8,315.9 338,315.9 338,306.8 
		328.5,306.8 328.5,315.9 325.6,315.9 	"/>
	<path class="st2" d="M364.3,307.7c0,5.6-2.8,8.6-7.7,8.6c-4.9,0-7.7-3-7.7-8.6V296h2.8v11.3c0,3.8,1.2,6.4,4.9,6.4
		c3.7,0,4.9-2.6,4.9-6.4V296h2.8L364.3,307.7L364.3,307.7z"/>
	<polygon class="st2" points="372.2,296 375,296 375,313.4 383.3,313.4 383.3,315.9 372.2,315.9 	"/>
	<polygon class="st2" points="389.4,296 400.5,296 400.5,298.5 392.2,298.5 392.2,304.4 399.8,304.4 399.8,306.8 392.2,306.8 
		392.2,313.4 400.5,313.4 400.5,315.9 389.4,315.9 	"/>
	<polygon class="st2" points="418.5,296 429,296 429,298.5 421.3,298.5 421.3,304.4 428.7,304.4 428.7,306.8 421.3,306.8 
		421.3,315.9 418.5,315.9 	"/>
	<path class="st2" d="M451.1,307.7c0,5.6-2.8,8.6-7.7,8.6c-4.9,0-7.7-3-7.7-8.6V296h2.9v11.3c0,3.8,1.2,6.4,4.9,6.4
		c3.7,0,4.9-2.6,4.9-6.4V296h2.8L451.1,307.7L451.1,307.7z M439.7,291.6h2.7v2.8h-2.7V291.6z M444.4,291.6h2.7v2.8h-2.7V291.6z"/>
	<path class="st2" d="M458.9,296h4.9c3.9,0,7.7,0.6,7.7,5.4c0,2.4-1.8,4.1-4.1,4.5v0.1c0.9,0.3,1.3,0.8,1.9,2l3.8,7.9h-3.2l-3-6.9
		c-0.9-1.9-1.8-1.9-3.3-1.9h-1.7v8.8h-2.8L458.9,296L458.9,296z M461.7,304.6h2.4c2.7,0,4.3-1.2,4.3-3.1c0-1.8-1.4-2.9-4-2.9h-2.7
		V304.6z"/>
	<polygon class="st2" points="493.9,298.5 487.7,298.5 487.7,296 502.9,296 502.9,298.5 496.8,298.5 496.8,315.9 493.9,315.9 	"/>
	<polygon class="st2" points="508.7,296 519.8,296 519.8,298.5 511.6,298.5 511.6,304.4 519.1,304.4 519.1,306.8 511.6,306.8 
		511.6,313.4 519.8,313.4 519.8,315.9 508.7,315.9 	"/>
	<path class="st2" d="M540.9,299.3c-1.3-0.7-2.6-1.1-4.1-1.1c-4.6,0-7.6,3.3-7.6,7.8c0,4.7,3.4,7.8,7.5,7.8c1.4,0,3.3-0.4,4.3-1
		l0.2,2.7c-1.5,0.6-3.4,0.7-4.5,0.7c-6.3,0-10.5-4-10.5-10.4c0-6.1,4.4-10.2,10.5-10.2c1.5,0,3,0.2,4.5,0.9L540.9,299.3z"/>
	<polygon class="st2" points="547.6,296 550.4,296 550.4,304.4 559.9,304.4 559.9,296 562.7,296 562.7,315.9 559.9,315.9 
		559.9,306.8 550.4,306.8 550.4,315.9 547.6,315.9 	"/>
	<polygon class="st2" points="570.8,296 574.6,296 583.4,312 583.4,312 583.4,296 586.3,296 586.3,315.9 582.6,315.9 573.6,299.6 
		573.6,299.6 573.6,315.9 570.8,315.9 	"/>
	<rect x="594.1" y="296" class="st2" width="2.8" height="19.9"/>
	<polygon class="st2" points="605,296 607.9,296 607.9,304.8 616.3,296 620.1,296 610.8,305.4 620.9,315.9 616.7,315.9 607.9,306.2 
		607.9,315.9 605,315.9 	"/>
	<path class="st2" d="M196.6,338.8h4.9c3.9,0,7.7,0.6,7.7,5.4c0,2.4-1.8,4.1-4.1,4.5v0.1c0.9,0.3,1.3,0.8,1.9,2l3.8,7.9h-3.2l-3-6.9
		c-0.9-1.9-1.8-1.9-3.3-1.9h-1.7v8.8h-2.8V338.8z M199.4,347.3h2.4c2.7,0,4.3-1.2,4.3-3.1c0-1.8-1.4-2.9-4-2.9h-2.7V347.3z"/>
	<path class="st2" d="M223.3,338.8h3l8.4,19.8h-3.1l-2-5h-9.7l-2,5h-3L223.3,338.8z M224.6,341.4l-4,9.8h7.9L224.6,341.4z"/>
	<path class="st2" d="M240.1,338.8h5.2c4.1,0,7.5,1.4,7.5,5.9c0,4.4-3.4,6-7,6H243v7.9h-2.8L240.1,338.8L240.1,338.8z M243,348.2
		h2.8c1.8,0,4-0.9,4-3.5c0-2.5-2.6-3.4-4.4-3.4H243L243,348.2L243,348.2z"/>
	<path class="st2" d="M258.8,338.8h5.2c4.1,0,7.4,1.4,7.4,5.9c0,4.4-3.4,6-7,6h-2.8v7.9h-2.8L258.8,338.8L258.8,338.8z M261.6,348.2
		h2.8c1.8,0,4-0.9,4-3.5c0-2.5-2.6-3.4-4.4-3.4h-2.4L261.6,348.2L261.6,348.2z"/>
	<polygon class="st2" points="277.7,338.8 288.8,338.8 288.8,341.3 280.6,341.3 280.6,347.1 288.1,347.1 288.1,349.6 280.6,349.6 
		280.6,356.1 288.8,356.1 288.8,358.6 277.7,358.6 	"/>
	<path class="st2" d="M296.1,338.8h4.9c3.9,0,7.7,0.6,7.7,5.4c0,2.4-1.8,4.1-4.1,4.5v0.1c0.9,0.3,1.3,0.8,1.9,2l3.7,7.9H307
		l-3.1-6.9c-0.9-1.9-1.8-1.9-3.3-1.9h-1.7v8.8h-2.8L296.1,338.8L296.1,338.8z M298.9,347.3h2.4c2.7,0,4.3-1.2,4.3-3.1
		c0-1.8-1.4-2.9-4-2.9h-2.7V347.3z"/>
	<path class="st2" d="M325.4,341.7c-1.4-0.6-2.2-0.8-3.7-0.8c-1.6,0-3.5,0.6-3.5,2.6c0,3.8,8.5,2.9,8.5,9.5c0,4.3-3.3,5.9-7.3,5.9
		c-1.4,0-2.7-0.4-4.1-0.8l0.3-2.6c1,0.4,2.7,1,4.1,1c1.6,0,3.9-0.9,3.9-3.2c0-4.4-8.5-3.2-8.5-9.4c0-3.5,2.8-5.4,6.4-5.4
		c1.3,0,2.9,0.2,4.2,0.7L325.4,341.7z"/>
	<polygon class="st2" points="331,338.8 334.1,338.8 338.9,355.7 338.9,355.7 343.2,338.8 347.2,338.8 351.5,355.7 351.5,355.7 
		356.3,338.8 359.3,338.8 353.2,358.6 349.5,358.6 345.2,341.3 345.2,341.3 340.8,358.6 337,358.6 	"/>
	<rect x="364.7" y="338.8" class="st2" width="2.8" height="19.9"/>
	<polygon class="st2" points="375.4,338.8 378.3,338.8 378.3,356.1 386.6,356.1 386.6,358.6 375.4,358.6 	"/>
</g>
</svg>
